. 
  
http://www.torrentday.com/        :     The Hottest Private Tracker On The Net!!!
 
http://www.torrentday.com          :     Once & For all ;)


               www . TorrentDay . Com 

(((((((((((((= Enjoy No RAR releases =))))))))))))))))))))


...................................NFO:....................................

.[img]http://img717.imageshack.us/img717/7997/wyimage2g.jpg[/img]

The Big Bang 2011 DVDRip XVID AC3 HQ Hive-CM8



[b]Thx Hive

CM8 Doing It Right The First Time :D

Source:
The.Big.Bang.2010.PAL.DVDR-CHOJRAK

Video: 720x304 @bitrate 1700 2pass
Audio: English AC3 5.1 @448
Sample: yes included

Encode:
added brightness,sharpness,chroma,denoise, and rgb colours[/b]
 
http://www.imdb.com/title/tt1307873/


General
Complete name                    : The.Big.Bang.2011.DVDRip.XVID.AC3.HQ.Hive-CM8.avi
Format                           : AVI
Format/Info                      : Audio Video Interleave
File size                        : 1.46 GiB
Duration                         : 1h 36mn
Overall bit rate                 : 2 157 Kbps
Writing application              : Nandub v1.0rc2
Writing library                  : Nandub build 1853/release

Video
ID                               : 0
Format                           : MPEG-4 Visual
Format profile                   : Advanced Simple@L5
Format settings, BVOP            : Yes
Format settings, QPel            : Yes
Format settings, GMC             : No warppoints
Format settings, Matrix          : Default (H.263)
Muxing mode                      : Packed bitstream
Codec ID                         : XVID
Codec ID/Hint                    : XviD
Duration                         : 1h 36mn
Bit rate                         : 1 699 Kbps
Width                            : 720 pixels
Height                           : 304 pixels
Display aspect ratio             : 2.35:1
Frame rate                       : 25.000 fps
Color space                      : YUV
Chroma subsampling               : 4:2:0
Bit depth                        : 8 bits
Scan type                        : Progressive
Bits/(Pixel*Frame)               : 0.311
Stream size                      : 1.15 GiB (79%)
Writing library                  : XviD 1.2.1 (UTC 2008-12-04)

Audio
ID                               : 1
Format                           : AC-3
Format/Info                      : Audio Coding 3
Mode extension                   : CM (complete main)
Codec ID                         : 2000
Duration                         : 1h 36mn
Bit rate mode                    : Constant
Bit rate                         : 448 Kbps
Channel(s)                       : 6 channels
Channel positions                : Front: L C R, Side: L R, LFE
Sampling rate                    : 48.0 KHz
Bit depth                        : 16 bits
Stream size                      : 311 MiB (21%)
Alignment                        : Split accross interleaves
Interleave, duration             : 40 ms (1.00 video frame)
Interleave, preload duration     : 500 ms



Sienna Guillory  ... Julie Kestral
Antonio Banderas ... Ned Cruz
Autumn Reeser 	... Fay Neman
Sam Elliott 	... Simon Kestral
William Fichtner ... Detective Poley
James Van Der Beek ... Johnny Nova 



A private detective is hired to find a missing stripper. A simple job 
turns complicated when everyone he questions ends up dead.  



[img]http://img152.imageshack.us/img152/8122/bbibbibibiii.png[/img]
[img]http://img37.imageshack.us/img37/5245/bbibbibibibiii.png[/img]
[img]http://img705.imageshack.us/img705/9882/bbibbibibibibbiibiii.png[/img]
[img]http://img600.imageshack.us/img600/6074/bbibbibibibbiibiii.png[/img]
[img]http://img510.imageshack.us/img510/265/87504313.png[/img]
[img]http://img16.imageshack.us/img16/4089/bbii.png[/img]
[img]http://img196.imageshack.us/img196/3623/bbibbibibbiibiii.png[/img]
[img]http://img408.imageshack.us/img408/9184/bbbiii.png[/img]
[img]http://img148.imageshack.us/img148/317/bbbibiii.png[/img]
[img]http://img823.imageshack.us/img823/9505/bbbibibiii.png[/img]






Greetz

iNK,LUSi,,MAGNET,CLASSiFiED,THC,LEGi0N,IMAGiNE,ViSiON,WBZ,FLAWL3SS,NOVA
Rapeseed,D2U,SAFC,goldadvance,MEMORY100,KaN1vE,Unevano,Pinnz,Wayne,Mr Hive
and all P2P groups 
Great Work Guys :D